<svg version="1" xmlns="http://www.w3.org/2000/svg" width="446.667" height="446.667" viewBox="0 0 335.000000 335.000000"><path d="M131.5 37c-19.8 19.8-36.3 35.9-36.6 35.8-.4-.2-3.9-4.2-7.8-9.1-5.1-6.1-7.9-8.7-9.4-8.7-1.8 0-9 10.3-38.7 55-20.1 30.3-36.9 56.2-37.5 57.6-.9 2.3 1.2 4.6 35.4 38.8l36.2 36.3-9 7.3c-8.6 6.9-10.1 9-8.3 11.6 1.4 2.2 108.7 72.8 111.2 73.2 3.8.5 115.4-71.9 115.8-75.2.2-1.8-1.5-3.8-9.2-10-5.3-4.3-9.6-8.1-9.6-8.5 0-.3 16-16.6 35.5-36.1s35.5-36.2 35.5-37c0-.8-16.4-26.7-36.4-57.5-30-46.2-36.8-56.1-38.8-56.3-2-.2-3.6 1.2-9 8.1-3.7 4.6-7.3 8.9-8 9.5-1.1.9-8.7-6.2-37.3-34.8-19.8-19.8-36.4-36-37-36-.6 0-17.2 16.2-37 36z"/></svg>